# xmcd CD database file
# Copyright (C) 1993-1998 Ti Kan
#
# Track frame offsets:
#	150
#	11075
#	26007
#	37822
#	52817
#	75530
#	87262
#	104490
#	127135
#	139417
#	155552
#	168245
#	183385
#	196990
#	220107
#
# Disc length: 3183 seconds
#
# Revision: 2
# Processed by: cddbd v1.4b41PL1 Copyright (c) Steve Scherf et al.
# Submitted via: CDValet v3.31 - Copyright (c) 1997 Greg Leichner
#
DISCID=c60c6d0f
DTITLE=The Souvenir Show - A Tribute To The Blues Brothers
DYEAR=1900
DGENRE=
TTITLE0=Green Onions
TTITLE1=Who's Making Love
TTITLE2=Back To Louisiana
TTITLE3=Bare Footin'
TTITLE4=When Something's Wrong With My Baby
TTITLE5=I Got You (I Feel Good)
TTITLE6=Flip, Flop and Fly
TTITLE7=Midnight Train To Georgia
TTITLE8=I Ain't Got You
TTITLE9=She Cought The Katy
TTITLE10=Soul Man
TTITLE11=Think
TTITLE12=Rooster Blues
TTITLE13=Shot Gun Blues
TTITLE14=Fat And Greasy
EXTD=
EXTT0=
EXTT1=
EXTT2=
EXTT3=
EXTT4=
EXTT5=
EXTT6=
EXTT7=
EXTT8=
EXTT9=
EXTT10=
EXTT11=
EXTT12=
EXTT13=
EXTT14=
PLAYORDER=
